<svg xmlns="http://www.w3.org/2000/svg"  viewBox="0 0 128 128" width="128px" height="128px"><path fill="#fff" d="M76 12A7 7 0 1 0 76 26 7 7 0 1 0 76 12zM76 102A7 7 0 1 0 76 116 7 7 0 1 0 76 102zM58 26.2c0-5-4-9-9-9-5 0-9 4-9 9 0 0 0 0 0 0-1.7-1.3-3.7-2-6-2-5.5 0-10 4.5-10 10 0 1.1.2 2.1.5 3-.2 0-.3 0-.5 0-6.1 0-11 4.9-11 11 0 2.4.7 4.5 2 6.3-4.2 2.7-7 7.3-7 12.7 0 5.3 2.8 10 6.9 12.6-1.2 2.2-1.9 4.7-1.9 7.4 0 8.3 6.7 15 15 15 .3 0 .6 0 .9 0 2 5.8 7.6 10 14.1 10 8.3 0 15-6.7 15-15C58 89 58 31.2 58 26.2z"/><path fill="#444b54" d="M49,14.2c-5.1,0-9.4,3.1-11.2,7.6c-1.2-0.4-2.5-0.6-3.8-0.6c-7.2,0-13,5.8-13,13c0,0,0,0,0,0.1c-6.3,1.4-11.1,7-11.1,13.7c0,2,0.4,3.9,1.2,5.7C7.3,57.1,5,62,5,67.2c0,0.6,0,1.1,0.1,1.6c0,0.1,0,0.2,0,0.3c0.1,0.5,0.1,1.1,0.2,1.6c0,0.1,0,0.1,0,0.2c0.1,0.5,0.2,1,0.4,1.5c0,0,0,0.1,0,0.1c0.2,0.5,0.4,1,0.6,1.6c0,0,0,0.1,0.1,0.1c0.4,1,1,2,1.6,2.9c0,0,0,0.1,0.1,0.1c0.6,0.9,1.3,1.7,2.1,2.5c0.1,0.1,0.1,0.1,0.2,0.2c0.4,0.3,0.7,0.7,1.1,1c0.1,0.1,0.2,0.2,0.3,0.2c0.3,0.2,0.6,0.4,0.9,0.6c0.2,0.1,0.3,0.2,0.5,0.4c0,0,0.1,0.1,0.1,0.1c0.1,0,0.1,0.1,0.2,0.1c2.8,1.7,6,2.7,9.5,2.7c9.9,0,18-8.1,18-18v-5c0-1.7-1.3-3-3-3s-3,1.3-3,3v5c0,6.6-5.4,12-12,12c-2.4,0-4.6-0.7-6.5-1.9c-0.8-0.5-1.6-1.1-2.2-1.8c-0.1-0.1-0.2-0.2-0.2-0.3c-0.2-0.2-0.4-0.5-0.6-0.8c-0.1-0.1-0.2-0.2-0.3-0.4c-0.2-0.3-0.4-0.6-0.6-0.9c0-0.1-0.1-0.1-0.1-0.2c-0.2-0.4-0.4-0.8-0.6-1.2c-0.1-0.1-0.1-0.3-0.2-0.4c-0.1-0.3-0.2-0.6-0.3-0.9c0-0.2-0.1-0.3-0.1-0.5c-0.1-0.3-0.1-0.6-0.2-0.9c0-0.1,0-0.3-0.1-0.4C11,68.2,11,67.7,11,67.2c0-4.1,2.1-7.9,5.6-10.1c1.1-0.7,1.6-2,1.3-3.3c-0.1-0.4-0.2-0.9-0.5-1.3c-1-1.4-1.5-2.9-1.5-4.6c0-3.9,2.8-7.1,6.5-7.9c2.2,4.2,6.5,7.1,11.6,7.1c1.7,0,3-1.3,3-3s-1.3-3-3-3c-3.1,0-5.8-2.1-6.7-4.9c-0.1-0.3-0.2-0.6-0.2-0.9c0-0.1,0-0.1,0-0.2c0-0.3-0.1-0.6-0.1-1c0-3.9,3.1-7,7-7c1.5,0,3,0.5,4.2,1.4c0.9,0.7,2.1,0.8,3.1,0.3c1-0.5,1.7-1.5,1.7-2.7c0,0,0,0,0-0.1c0-3.3,2.7-5.9,6-5.9c3.3,0,6,2.7,6,6v71c0,6.6-5.4,12-12,12c-5.1,0-9.6-3.2-11.3-8c-0.4-1.3-1.7-2.1-3-2l-0.3,0c-0.1,0-0.3,0-0.4,0c-6.6,0-12-5.4-12-12c0-1.7-1.3-3-3-3s-3,1.3-3,3c0,9.5,7.5,17.4,16.9,18c3,6.1,9.2,10,16.1,10c9.9,0,18-8.1,18-18v-71C61,19.6,55.6,14.2,49,14.2z"/><path fill="#444b54" d="M20,57.6h-5c-1.7,0-3-1.3-3-3s1.3-3,3-3h5c1.7,0,3,1.3,3,3S21.7,57.6,20,57.6z"/><g><path fill="#fff" d="M111 57A7 7 0 1 0 111 71 7 7 0 1 0 111 57zM102 26A7 7 0 1 0 102 40 7 7 0 1 0 102 26zM102 88A7 7 0 1 0 102 102 7 7 0 1 0 102 88z"/><path fill="#71c2ff" d="M97 93c-.8 0-1.5-.3-2.1-.9L84.8 82H71c-1.7 0-3-1.3-3-3s1.3-3 3-3h15c.8 0 1.6.3 2.1.9l11 11c1.2 1.2 1.2 3.1 0 4.2C98.5 92.7 97.8 93 97 93zM86 52H71c-1.7 0-3-1.3-3-3s1.3-3 3-3h13.8l10.1-10.1c1.2-1.2 3.1-1.2 4.2 0 1.2 1.2 1.2 3.1 0 4.2l-11 11C87.6 51.7 86.8 52 86 52zM104 67H71c-1.7 0-3-1.3-3-3s1.3-3 3-3h33c1.7 0 3 1.3 3 3S105.7 67 104 67z"/><path fill="#71c2ff" d="M111 74c-5.5 0-10-4.5-10-10s4.5-10 10-10 10 4.5 10 10S116.5 74 111 74zM111 60c-2.2 0-4 1.8-4 4s1.8 4 4 4 4-1.8 4-4S113.2 60 111 60zM102 43c-5.5 0-10-4.5-10-10s4.5-10 10-10 10 4.5 10 10S107.5 43 102 43zM102 29c-2.2 0-4 1.8-4 4s1.8 4 4 4 4-1.8 4-4S104.2 29 102 29zM76 29c-5.5 0-10-4.5-10-10S70.5 9 76 9s10 4.5 10 10S81.5 29 76 29zM76 15c-2.2 0-4 1.8-4 4s1.8 4 4 4 4-1.8 4-4S78.2 15 76 15zM102 105c-5.5 0-10-4.5-10-10s4.5-10 10-10 10 4.5 10 10S107.5 105 102 105zM102 91c-2.2 0-4 1.8-4 4s1.8 4 4 4 4-1.8 4-4S104.2 91 102 91zM76 119c-5.5 0-10-4.5-10-10s4.5-10 10-10 10 4.5 10 10S81.5 119 76 119zM76 105c-2.2 0-4 1.8-4 4s1.8 4 4 4 4-1.8 4-4S78.2 105 76 105z"/></g></svg>