<?xml version="1.0" encoding="iso-8859-1"?>
<!-- Uploaded to: SVG Repo, www.svgrepo.com, Generator: SVG Repo Mixer Tools -->
<svg fill="#000000" height="800px" width="800px" version="1.1" id="Layer_1" xmlns="http://www.w3.org/2000/svg" xmlns:xlink="http://www.w3.org/1999/xlink" 
	 viewBox="0 0 512 512" xml:space="preserve">
<g>
	<g>
		<path d="M93.091,360.727c-25.67,0-46.545,20.876-46.545,46.545c0,25.67,20.876,46.545,46.545,46.545
			c25.67,0,46.545-20.876,46.545-46.545C139.636,381.603,118.761,360.727,93.091,360.727z M93.091,430.545
			c-12.835,0-23.273-10.438-23.273-23.273c0-12.835,10.438-23.273,23.273-23.273c12.835,0,23.273,10.438,23.273,23.273
			C116.364,420.108,105.926,430.545,93.091,430.545z"/>
	</g>
</g>
<g>
	<g>
		<path d="M128,81.455H58.182c-6.435,0-11.636,5.201-11.636,11.636c0,6.435,5.201,11.636,11.636,11.636H128
			c6.435,0,11.636-5.201,11.636-11.636C139.636,86.656,134.435,81.455,128,81.455z"/>
	</g>
</g>
<g>
	<g>
		<path d="M128,128H58.182c-6.435,0-11.636,5.201-11.636,11.636c0,6.435,5.201,11.636,11.636,11.636H128
			c6.435,0,11.636-5.201,11.636-11.636C139.636,133.201,134.435,128,128,128z"/>
	</g>
</g>
<g>
	<g>
		<path d="M128,174.545H58.182c-6.435,0-11.636,5.201-11.636,11.636s5.201,11.636,11.636,11.636H128
			c6.435,0,11.636-5.201,11.636-11.636S134.435,174.545,128,174.545z"/>
	</g>
</g>
<g>
	<g>
		<path d="M302.545,0H197.818c-19.247,0-34.909,15.663-34.909,34.909v442.182c0,6.423-5.213,11.636-11.636,11.636H34.909
			c-6.423,0-11.636-5.213-11.636-11.636V34.909c0-6.423,5.213-11.636,11.636-11.636H128c6.435,0,11.636-5.201,11.636-11.636
			C139.636,5.201,134.435,0,128,0H34.909C15.663,0,0,15.663,0,34.909v442.182C0,496.337,15.663,512,34.909,512h116.364
			c19.247,0,34.909-15.663,34.909-34.909V34.909c0-6.423,5.213-11.636,11.636-11.636h104.727c6.435,0,11.636-5.201,11.636-11.636
			C314.182,5.201,308.98,0,302.545,0z"/>
	</g>
</g>
<g>
	<g>
		<path d="M256,360.727c-25.67,0-46.545,20.876-46.545,46.545c0,25.67,20.876,46.545,46.545,46.545s46.545-20.876,46.545-46.545
			C302.545,381.603,281.67,360.727,256,360.727z M256,430.545c-12.835,0-23.273-10.438-23.273-23.273
			C232.727,394.438,243.165,384,256,384s23.273,10.438,23.273,23.273C279.273,420.108,268.835,430.545,256,430.545z"/>
	</g>
</g>
<g>
	<g>
		<path d="M290.909,81.455h-69.818c-6.435,0-11.636,5.201-11.636,11.636c0,6.435,5.201,11.636,11.636,11.636h69.818
			c6.435,0,11.636-5.201,11.636-11.636C302.545,86.656,297.344,81.455,290.909,81.455z"/>
	</g>
</g>
<g>
	<g>
		<path d="M290.909,128h-69.818c-6.435,0-11.636,5.201-11.636,11.636c0,6.435,5.201,11.636,11.636,11.636h69.818
			c6.435,0,11.636-5.201,11.636-11.636C302.545,133.201,297.344,128,290.909,128z"/>
	</g>
</g>
<g>
	<g>
		<path d="M290.909,174.545h-69.818c-6.435,0-11.636,5.201-11.636,11.636s5.201,11.636,11.636,11.636h69.818
			c6.435,0,11.636-5.201,11.636-11.636S297.344,174.545,290.909,174.545z"/>
	</g>
</g>
<g>
	<g>
		<path d="M477.091,0H360.727c-19.247,0-34.909,15.663-34.909,34.909v34.909v407.273c0,6.423-5.213,11.636-11.636,11.636h-93.091
			c-6.435,0-11.636,5.201-11.636,11.636S214.656,512,221.091,512h93.091c19.247,0,34.909-15.663,34.909-34.909V69.818V34.909
			c0-6.423,5.213-11.636,11.636-11.636h116.364c6.423,0,11.636,5.213,11.636,11.636v442.182c0,6.423-5.213,11.636-11.636,11.636H384
			c-6.435,0-11.636,5.201-11.636,11.636S377.565,512,384,512h93.091C496.337,512,512,496.337,512,477.091V34.909
			C512,15.663,496.337,0,477.091,0z"/>
	</g>
</g>
<g>
	<g>
		<path d="M418.909,360.727c-25.67,0-46.545,20.876-46.545,46.545c0,25.67,20.876,46.545,46.545,46.545
			c25.67,0,46.545-20.876,46.545-46.545C465.455,381.603,444.579,360.727,418.909,360.727z M418.909,430.545
			c-12.835,0-23.273-10.438-23.273-23.273c0-12.835,10.438-23.273,23.273-23.273c12.835,0,23.273,10.438,23.273,23.273
			C442.182,420.108,431.744,430.545,418.909,430.545z"/>
	</g>
</g>
<g>
	<g>
		<path d="M453.818,81.455H384c-6.435,0-11.636,5.201-11.636,11.636c0,6.435,5.201,11.636,11.636,11.636h69.818
			c6.435,0,11.636-5.201,11.636-11.636C465.455,86.656,460.253,81.455,453.818,81.455z"/>
	</g>
</g>
<g>
	<g>
		<path d="M453.818,128H384c-6.435,0-11.636,5.201-11.636,11.636c0,6.435,5.201,11.636,11.636,11.636h69.818
			c6.435,0,11.636-5.201,11.636-11.636C465.455,133.201,460.253,128,453.818,128z"/>
	</g>
</g>
<g>
	<g>
		<path d="M453.818,174.545H384c-6.435,0-11.636,5.201-11.636,11.636s5.201,11.636,11.636,11.636h69.818
			c6.435,0,11.636-5.201,11.636-11.636S460.253,174.545,453.818,174.545z"/>
	</g>
</g>
</svg>